HIERARCHY
ROOT Hips
{
	OFFSET 0.000000 0.000000 0.000000
	CHANNELS 6 Xposition Yposition Zposition Zrotation Yrotation Xrotation 
	JOINT LHipJoint
	{
		OFFSET 0.000000 0.000000 0.000000
		CHANNELS 3 Zrotation Yrotation Xrotation
		JOINT LeftUpLeg
		{
			OFFSET 1.363060 -1.794630 0.839290
			CHANNELS 3 Zrotation Yrotation Xrotation
			JOINT LeftLeg
			{
				OFFSET 2.448110 -6.726130 0.000000
				CHANNELS 3 Zrotation Yrotation Xrotation
				JOINT LeftFoot
				{
					OFFSET 2.562200 -7.039590 0.000000
					CHANNELS 3 Zrotation Yrotation Xrotation
					JOINT LeftToeBase
					{
						OFFSET 0.157640 -0.433110 2.322550
						CHANNELS 3 Zrotation Yrotation Xrotation
						End Site
						{
							OFFSET 0.000000 0.000000 0.000000
						}
					}
				}
			}
		}
	}
	JOINT RHipJoint
	{
		OFFSET 0.000000 0.000000 0.000000
		CHANNELS 3 Zrotation Yrotation Xrotation
		JOINT RightUpLeg
		{
			OFFSET -1.305520 -1.794630 0.839290
			CHANNELS 3 Zrotation Yrotation Xrotation
			JOINT RightLeg
			{
				OFFSET -2.542530 -6.985550 0.000000
				CHANNELS 3 Zrotation Yrotation Xrotation
				JOINT RightFoot
				{
					OFFSET -2.568260 -7.056230 0.000000
					CHANNELS 3 Zrotation Yrotation Xrotation
					JOINT RightToeBase
					{
						OFFSET -0.164730 -0.452590 2.363150
						CHANNELS 3 Zrotation Yrotation Xrotation
						End Site
						{
							OFFSET 0.000000 0.000000 0.000000
						}
					}
				}
			}
		}
	}
}
MOTION
Frames: 22
Frame Time: 0.008333
-1.730194 17.493993 1.365070 100.177737 -87.001877 -69.344043 -7.902174 1.765559 6.582093 -9.541825 -12.070215 -48.617510 -1.623363 0.322327 30.796138 2.499086 10.350480 -9.806939 0.163100 0.000000 -23.676200 11.430134 -4.298398 3.528529 10.007253 -0.281022 -10.228146 1.588353 -0.101342 5.817975 0.210589 1.590343 21.940832 0.370800 0.000000 -60.754300
-2.021693 17.502771 1.326462 108.405423 -86.809480 -77.242144 -7.695421 1.684127 6.856373 -9.689488 -12.395027 -49.528898 -1.981108 -0.017405 27.227328 2.376267 9.385093 -9.981831 0.157800 0.000000 -26.041700 11.533680 -4.437383 3.469379 9.609971 -0.452902 -9.505889 1.520367 -0.160560 4.984868 0.167523 2.106475 24.448237 0.766000 -0.000000 -61.113100
-2.306822 17.506864 1.279311 124.852421 -86.105283 -93.638103 -7.596046 1.504632 6.819101 -10.454476 -11.735631 -49.750119 -2.441308 -0.410076 23.392758 2.219266 8.399431 -10.116167 0.138300 0.000000 -28.495100 11.573896 -4.594486 3.455951 8.763355 -0.069459 -8.544502 1.391444 -0.263054 4.468697 0.090948 2.733383 26.582162 1.264300 -0.000000 -61.489300
-2.598243 17.494346 1.245233 130.292291 -85.839590 -98.967269 -7.486560 1.415263 7.014577 -10.618595 -11.697751 -50.269833 -2.804309 -0.793594 19.828166 2.055181 7.468790 -9.996938 0.170400 0.000000 -30.950301 11.600702 -4.715708 3.326775 8.517830 -0.404642 -7.627632 1.355796 -0.310502 3.865345 0.040070 3.301095 28.559848 1.726700 0.000000 -61.582700
-2.889604 17.470147 1.213752 135.362154 -85.578548 -104.055729 -7.435066 1.307353 7.140494 -10.823868 -11.462189 -50.635132 -3.138641 -1.159331 16.562882 1.865665 6.540401 -9.721588 0.214100 -0.000001 -33.133600 11.591335 -4.839829 3.174434 8.326734 -0.804917 -6.594938 1.335616 -0.358176 3.382125 -0.006996 3.926926 30.281069 2.232400 -0.000000 -61.551300
-3.180907 17.433907 1.184500 140.149734 -85.304252 -108.986208 -7.438520 1.189206 7.193034 -11.084425 -11.062401 -50.918099 -3.429186 -1.468458 13.822858 1.657704 5.619516 -9.318740 0.262000 0.000000 -34.989800 11.550870 -4.966465 3.008979 8.158109 -1.254322 -5.465392 1.326268 -0.407839 3.034519 -0.046572 4.635586 31.761474 2.794000 0.000000 -61.387600
-3.472225 17.385546 1.156734 144.564829 -85.001391 -113.646225 -7.481643 1.077214 7.185410 -11.386224 -10.579129 -51.199731 -3.664402 -1.687977 11.796053 1.448234 4.743918 -8.841219 0.306200 0.000000 -36.489900 11.493096 -5.091577 2.840268 7.974023 -1.737373 -4.281682 1.320592 -0.460805 2.843723 -0.077425 5.445297 33.021471 3.422700 -0.000000 -61.083800
-3.763875 17.325319 1.129620 148.428180 -84.666703 -117.819935 -7.542613 0.987949 7.142976 -11.683969 -10.123184 -51.549459 -3.834284 -1.797461 10.606011 1.260313 3.983500 -8.349708 0.343000 0.000000 -37.683000 11.437439 -5.210300 2.677549 7.740664 -2.236931 -3.101061 1.310275 -0.518046 2.832892 -0.101159 6.359267 34.084509 4.121400 0.000000 -60.635400
-4.055782 17.253918 1.102405 151.586538 -84.310486 -121.322351 -7.601827 0.930897 7.089662 -11.926380 -9.793494 -52.017254 -3.931333 -1.786941 10.328196 1.113252 3.399685 -7.908362 0.371400 0.000000 -38.591200 11.401438 -5.319634 2.529220 7.437320 -2.732217 -1.977613 1.287657 -0.580291 3.020505 -0.121924 7.356412 34.977891 4.878300 0.000000 -60.051000
-4.348042 17.172254 1.074662 153.953494 -83.947351 -124.040625 -7.645431 0.907696 7.043637 -12.075083 -9.663014 -52.621833 -3.948819 -1.656901 10.982767 1.019497 3.038452 -7.559966 0.394201 -0.000000 -39.290899 11.400125 -5.418692 2.399925 7.047599 -3.219177 -0.964073 1.246913 -0.648438 3.436033 -0.144085 8.412793 35.716399 5.677400 -0.000001 -59.336200
-4.640367 17.081556 1.046504 155.615068 -83.590081 -126.058668 -7.674486 0.911752 6.998253 -12.149108 -9.709243 -53.379316 -3.887963 -1.405797 12.613532 0.972319 2.845577 -7.364214 0.405200 -0.000000 -39.710100 11.432994 -5.510273 2.295630 6.576364 -3.684137 -0.082555 1.185407 -0.722463 4.096551 -0.172222 9.472059 36.319491 6.480700 0.000000 -58.518900
-4.932636 16.983197 1.018573 156.761229 -83.239994 -127.575544 -7.699813 0.929161 6.935904 -12.183947 -9.866733 -54.271378 -3.748507 -1.041193 15.210963 0.958627 2.746760 -7.360031 0.396800 -0.000001 -39.755800 11.489468 -5.597116 2.220311 6.037284 -4.107890 0.670327 1.102184 -0.801662 5.006838 -0.210481 10.455692 36.811835 7.234700 0.000000 -57.672700
-5.224455 16.878879 0.991864 157.633224 -82.884337 -128.855733 -7.738171 0.940374 6.835699 -12.213352 -10.049380 -55.238965 -3.530103 -0.584581 18.690781 0.965588 2.679159 -7.575662 0.360900 0.000000 -39.246000 11.552569 -5.679343 2.170646 5.444279 -4.486799 1.303222 0.998341 -0.886208 6.190912 -0.260262 11.290326 37.194431 7.885200 -0.000000 -56.840900
-5.515504 16.770838 0.967369 158.445318 -82.501833 -130.132594 -7.803864 0.925425 6.686921 -12.244762 -10.195200 -56.173269 -3.236980 -0.078685 22.840305 0.988839 2.638730 -8.013927 0.297100 0.000000 -38.039400 11.604674 -5.753272 2.139931 4.810959 -4.803052 1.836065 0.874040 -0.975872 7.653513 -0.323618 11.880123 37.478882 8.364000 0.000000 -56.125800
-5.805553 16.661895 0.945761 159.316912 -82.068741 -131.532991 -7.900993 0.875213 6.493484 -12.282403 -10.273947 -56.944845 -2.889336 0.422612 27.353896 1.031207 2.661866 -8.670939 0.209000 0.000000 -36.089300 11.637301 -5.811554 2.117612 4.139061 -5.049932 2.268480 0.728849 -1.070667 9.410202 -0.402067 12.139129 37.659590 8.607800 0.000000 -55.615900
-6.094389 16.555424 0.927108 160.260149 -81.567239 -133.062067 -8.021727 0.797248 6.270549 -12.344461 -10.282804 -57.441860 -2.522849 0.872228 31.897796 1.098615 2.797212 -9.541352 0.099900 0.000000 -33.544500 11.653697 -5.845112 2.095276 3.424100 -5.221193 2.576970 0.561853 -1.169899 11.474453 -0.497971 11.985266 37.722769 8.556600 -0.000000 -55.388000
-6.381957 16.455006 0.911074 161.224286 -80.989571 -134.647822 -8.151366 0.711528 6.036454 -12.463729 -10.231062 -57.598429 -2.176380 1.243365 36.185293 1.196818 3.082673 -10.624313 -0.032500 -0.000000 -30.721900 11.665670 -5.846119 2.070346 2.662326 -5.310984 2.717676 0.373486 -1.271811 13.854903 -0.614434 11.348799 37.644999 8.160800 0.000000 -55.484100
-6.668285 16.364082 0.897275 162.173432 -80.335245 -136.225307 -8.276759 0.639587 5.807184 -12.667988 -10.127406 -57.402995 -1.878541 1.529771 40.016703 1.330577 3.539563 -11.921062 -0.197999 0.000000 -27.987900 11.683954 -5.809583 2.047704 1.862982 -5.305685 2.636573 0.167232 -1.373865 16.551266 -0.754467 10.177815 37.392587 7.386300 0.000000 -55.883299
-6.953516 16.285590 0.885302 163.088745 -79.605816 -137.745654 -8.387594 0.596914 5.592605 -12.972927 -9.976991 -56.875718 -1.644109 1.736574 43.273499 1.503854 4.176261 -13.426616 -0.412900 -0.000000 -25.631100 11.716692 -5.733512 2.035719 1.041019 -5.190826 2.289039 -0.050382 -1.473603 19.544312 -0.920595 8.458113 36.927699 6.231601 0.000000 -56.498300
-7.237451 16.221885 0.874919 163.992770 -78.802037 -139.211313 -8.479859 0.589639 5.396723 -13.372663 -9.776028 -56.056275 -1.476205 1.873352 45.901844 1.718783 4.986942 -15.122654 -0.696700 -0.000000 -23.805900 11.763902 -5.618473 2.043436 0.223352 -4.948103 1.649550 -0.270348 -1.569925 22.794144 -1.113583 6.219289 36.210481 4.733000 0.000001 -57.174500
-7.520238 16.174536 0.865979 164.908806 -77.924076 -140.631372 -8.552223 0.617360 5.218579 -13.850982 -9.518833 -54.980000 -1.371086 1.948631 47.885151 1.974683 5.953738 -16.968994 -1.066900 -0.000000 -22.547300 11.823324 -5.468126 2.076578 -0.567981 -4.569771 0.718220 -0.482997 -1.663855 26.238978 -1.331786 3.552185 35.206140 2.976499 0.000000 -57.700400
-7.801792 16.144379 0.858623 165.901239 -76.973802 -142.065904 -8.611184 0.674123 5.054515 -14.368533 -9.190250 -53.686467 -1.320311 1.970777 49.238487 2.265048 7.039298 -18.901954 -1.531400 0.000000 -21.814901 11.883501 -5.289385 2.139064 -1.293844 -4.043011 -0.481794 -0.680332 -1.758136 29.797901 -1.570641 0.584236 33.894549 1.078301 -0.000000 -57.895499
